<?xml version="1.0" encoding="UTF-8"?>
<svg xmlns="http://www.w3.org/2000/svg" xmlns:xlink="http://www.w3.org/1999/xlink" viewBox="0 0 64 64" width="64px" height="64px">
<g id="surface10174623">
<path style=" stroke:none;fill-rule:nonzero;fill:rgb(20.392157%,59.607846%,85.882354%);fill-opacity:1;" d="M 38.578125 2.558594 C 34.394531 2.558594 30.777344 3.835938 28.238281 6.359375 C 25.703125 8.878906 24.320312 12.574219 24.320312 17.109375 L 24.320312 23.039062 L 16.640625 23.039062 C 15.933594 23.039062 15.359375 23.613281 15.359375 24.320312 L 15.359375 34.558594 C 15.359375 35.265625 15.933594 35.839844 16.640625 35.839844 L 24.320312 35.839844 L 24.320312 60.160156 C 24.320312 60.867188 24.894531 61.441406 25.601562 61.441406 L 35.839844 61.441406 C 36.546875 61.441406 37.121094 60.867188 37.121094 60.160156 L 37.121094 35.839844 L 46.078125 35.839844 C 46.726562 35.839844 47.269531 35.359375 47.351562 34.71875 L 48.628906 24.480469 C 48.675781 24.117188 48.5625 23.75 48.320312 23.472656 C 48.078125 23.199219 47.726562 23.039062 47.359375 23.039062 L 37.121094 23.039062 L 37.121094 17.921875 C 37.121094 16.492188 38.25 15.359375 39.679688 15.359375 L 47.359375 15.359375 C 48.066406 15.359375 48.640625 14.785156 48.640625 14.078125 L 48.640625 4.28125 C 48.640625 3.640625 48.164062 3.097656 47.527344 3.015625 C 46.394531 2.863281 42.3125 2.558594 38.578125 2.558594 Z M 38.578125 5.121094 C 41.699219 5.121094 44.71875 5.371094 46.078125 5.496094 L 46.078125 12.800781 L 39.679688 12.800781 C 36.867188 12.800781 34.558594 15.105469 34.558594 17.921875 L 34.558594 24.320312 C 34.558594 25.027344 35.132812 25.601562 35.839844 25.601562 L 45.910156 25.601562 L 44.949219 33.28125 L 35.839844 33.28125 C 35.132812 33.28125 34.558594 33.851562 34.558594 34.558594 L 34.558594 58.878906 L 26.878906 58.878906 L 26.878906 34.558594 C 26.878906 33.851562 26.308594 33.28125 25.601562 33.28125 L 17.921875 33.28125 L 17.921875 25.601562 L 25.601562 25.601562 C 26.308594 25.601562 26.878906 25.027344 26.878906 24.320312 L 26.878906 17.109375 C 26.878906 13.085938 28.058594 10.144531 30.046875 8.171875 C 32.03125 6.199219 34.90625 5.121094 38.578125 5.121094 Z M 38.578125 5.121094 "/>
</g>
</svg>
