<?xml version="1.0" encoding="UTF-8"?>
<svg xmlns="http://www.w3.org/2000/svg" xmlns:xlink="http://www.w3.org/1999/xlink" viewBox="0 0 64 64" width="64px" height="64px">
<defs>
<radialGradient id="radial0" gradientUnits="userSpaceOnUse" cx="85.994629" cy="84.65625" fx="85.994629" fy="84.65625" r="82.710503" gradientTransform="matrix(0.372093,0,0,0.372093,0,0)">
<stop offset="0" style="stop-color:rgb(95.686275%,91.37255%,76.47059%);stop-opacity:1;"/>
<stop offset="0.219" style="stop-color:rgb(97.254902%,93.333334%,80.392158%);stop-opacity:1;"/>
<stop offset="0.644" style="stop-color:rgb(99.215686%,95.686275%,86.274511%);stop-opacity:1;"/>
<stop offset="1" style="stop-color:rgb(100%,96.470588%,88.235295%);stop-opacity:1;"/>
</radialGradient>
<linearGradient id="linear0" gradientUnits="userSpaceOnUse" x1="79.01519" y1="166.453003" x2="79.01519" y2="-109.472618" gradientTransform="matrix(0.372093,0,0,0.372093,0,0)">
<stop offset="0" style="stop-color:rgb(100%,34.509805%,25.098041%);stop-opacity:1;"/>
<stop offset="0.007" style="stop-color:rgb(100%,34.509805%,25.098041%);stop-opacity:1;"/>
<stop offset="0.989" style="stop-color:rgb(98.039216%,32.156864%,54.901963%);stop-opacity:1;"/>
<stop offset="1" style="stop-color:rgb(98.039216%,32.156864%,54.901963%);stop-opacity:1;"/>
</linearGradient>
<linearGradient id="linear1" gradientUnits="userSpaceOnUse" x1="32.647751" y1="175.031494" x2="32.647751" y2="48.880249" gradientTransform="matrix(0.372093,0,0,0.372093,0,0)">
<stop offset="0" style="stop-color:rgb(99.607843%,66.666669%,32.549021%);stop-opacity:1;"/>
<stop offset="0.612" style="stop-color:rgb(100%,80.392158%,28.627452%);stop-opacity:1;"/>
<stop offset="1" style="stop-color:rgb(100%,87.058824%,26.666668%);stop-opacity:1;"/>
</linearGradient>
<linearGradient id="linear2" gradientUnits="userSpaceOnUse" x1="79.980003" y1="90.974564" x2="79.980003" y2="196.02356" gradientTransform="matrix(0.372093,0,0,0.372093,0,0)">
<stop offset="0" style="stop-color:rgb(25.882354%,84.313726%,47.058824%);stop-opacity:1;"/>
<stop offset="0.428" style="stop-color:rgb(23.921569%,79.215688%,46.27451%);stop-opacity:1;"/>
<stop offset="1" style="stop-color:rgb(20.392157%,69.411767%,44.313726%);stop-opacity:1;"/>
</linearGradient>
<linearGradient id="linear3" gradientUnits="userSpaceOnUse" x1="123.625" y1="167.597885" x2="123.625" y2="81.718811" gradientTransform="matrix(0.372093,0,0,0.372093,0,0)">
<stop offset="0" style="stop-color:rgb(8.235294%,36.078432%,87.058824%);stop-opacity:1;"/>
<stop offset="0.278" style="stop-color:rgb(12.156863%,49.803922%,89.803922%);stop-opacity:1;"/>
<stop offset="0.569" style="stop-color:rgb(15.294118%,61.176473%,92.156863%);stop-opacity:1;"/>
<stop offset="0.82" style="stop-color:rgb(17.254902%,68.627453%,93.725491%);stop-opacity:1;"/>
<stop offset="1" style="stop-color:rgb(18.039216%,70.980394%,94.117647%);stop-opacity:1;"/>
</linearGradient>
</defs>
<g id="surface3418087">
<path style=" stroke:none;fill-rule:nonzero;fill:url(#radial0);" d="M 63.96875 30.058594 C 63.679688 32.921875 61.109375 35 58.238281 35 L 53 35 C 51.78125 35 50.820312 36.078125 51.03125 37.339844 C 51.191406 38.320312 52.109375 39 53.109375 39 L 56.5 39 C 59.128906 39 61.25 41.28125 60.980469 43.960938 C 60.738281 46.300781 58.640625 48 56.289062 48 L 51 48 C 49.78125 48 48.820312 49.078125 49.03125 50.339844 C 49.191406 51.320312 50.109375 52 51.109375 52 L 54.5 52 C 55.738281 52 56.871094 52.5 57.679688 53.320312 C 58.5 54.128906 59 55.261719 59 56.5 C 59 58.988281 56.988281 61 54.5 61 L 10.5 61 C 8.980469 61 7.601562 60.378906 6.609375 59.390625 C 5.621094 58.398438 5 57.019531 5 55.5 C 5 52.460938 7.460938 50 10.5 50 L 14 50 C 15.21875 50 16.179688 48.921875 15.96875 47.660156 C 15.808594 46.679688 14.890625 46 13.890625 46 L 5.5 46 C 2.871094 46 0.75 43.71875 1.019531 41.039062 C 1.261719 38.699219 3.359375 37 5.710938 37 L 13 37 C 14.710938 37 16.089844 35.570312 16 33.839844 C 15.910156 32.21875 14.449219 31 12.828125 31 L 4.5 31 C 1.871094 31 -0.25 28.71875 0.0195312 26.039062 C 0.261719 23.699219 2.371094 22 4.710938 22 L 14.5 22 C 15.738281 22 16.871094 21.5 17.679688 20.679688 C 18.5 19.871094 19 18.738281 19 17.5 C 19 15.011719 16.988281 13 14.5 13 L 8.5 13 C 6.980469 13 5.601562 12.378906 4.609375 11.390625 C 3.621094 10.398438 3 9.019531 3 7.5 C 3 4.460938 5.460938 2 8.5 2 L 56.5 2 C 59.710938 2 62.300781 4.789062 61.96875 8.058594 C 61.679688 10.921875 60.109375 13 57.238281 13 L 55.5 13 C 52.460938 13 50 15.460938 50 18.5 C 50 20.019531 50.621094 21.398438 51.609375 22.390625 C 52.601562 23.378906 53.980469 24 55.5 24 L 58.5 24 C 61.710938 24 64.300781 26.789062 63.96875 30.058594 Z M 63.96875 30.058594 "/>
<path style=" stroke:none;fill-rule:nonzero;fill:url(#linear0);" d="M 47.460938 15.5 L 46.089844 16.980469 C 44.75 18.421875 42.589844 18.648438 40.941406 17.578125 C 38.230469 15.828125 34.511719 14.449219 29.941406 15.210938 C 25 16.039062 20.769531 19.058594 18.300781 23.179688 L 10.269531 17.101562 C 14.988281 9.820312 23.199219 5 32.5 5 C 37.5 5 42.441406 6.558594 46.769531 9.460938 C 48.808594 10.828125 49.128906 13.710938 47.460938 15.5 Z M 47.460938 15.5 "/>
<path style=" stroke:none;fill-rule:nonzero;fill:url(#linear1);" d="M 16.011719 30.910156 C 15.921875 33.378906 16.378906 35.738281 17.28125 37.871094 L 9.070312 43.921875 C 7.71875 41.410156 6.769531 38.640625 6.320312 35.699219 C 5.261719 28.820312 6.859375 22.320312 10.269531 17.101562 L 18.300781 23.179688 C 16.929688 25.46875 16.101562 28.109375 16.011719 30.910156 Z M 16.011719 30.910156 "/>
<path style=" stroke:none;fill-rule:nonzero;fill:url(#linear2);" d="M 50.449219 51.28125 C 45.898438 55.351562 39.839844 57.851562 33.089844 57.988281 C 22.910156 58.199219 13.660156 52.53125 9.070312 43.921875 L 17.28125 37.871094 C 19.78125 43.808594 25.671875 48 32.5 48 C 36.441406 48 40.019531 46.71875 42.828125 44.558594 Z M 50.449219 51.28125 "/>
<path style=" stroke:none;fill-rule:nonzero;fill:url(#linear3);" d="M 59 31.96875 C 59.011719 39.699219 55.738281 46.550781 50.449219 51.28125 L 42.828125 44.558594 C 44.929688 42.949219 46.601562 40.851562 47.671875 38.410156 C 47.960938 37.75 47.46875 37 46.75 37 L 37 37 C 34.789062 37 33 35.210938 33 33 L 33 31 C 33 28.789062 34.789062 27 37 27 L 54 27 C 56.75 27 59 29.21875 59 31.96875 Z M 59 31.96875 "/>
</g>
</svg>
